<svg width="93" height="28" viewBox="0 0 93 28" fill="none" xmlns="http://www.w3.org/2000/svg">
<g id="xendit_white_logo copy">
<g id="xendit_icon_blue_red">
<mask id="mask0_2499_62308" style="mask-type:luminance" maskUnits="userSpaceOnUse" x="0" y="0" width="29" height="28">
<rect id="Mask" x="0.5" y="0.160355" width="28.3378" height="27.6793" fill="white"/>
</mask>
<g mask="url(#mask0_2499_62308)">
<g id="xendit_icon_blue_red_2">
<path id="Fill-1_1_" d="M17.0767 20.639L19.6813 25.0392L20.9398 24.278L21.3815 22.8208L18.5852 18.0909L17.0767 20.639Z" fill="#1762EE"/>
<path id="Fill-2_1_" d="M8.64888 3.21334L7.41953 4.25539L10.72 9.82788L12.2244 7.28382L9.21147 2.19165L8.64888 3.21334Z" fill="#1762EE"/>
<path id="Fill-3_1_" d="M11.4817 16.8332L7.81442 23.0326L8.27283 24.6811L9.398 25.4586L14.6863 16.5157L16.1949 13.9635L22.0458 4.05599L21.0748 2.73716L20.7456 2.27719L19.3204 3.56753L11.4817 16.8332Z" fill="#1762EE"/>
<path id="Fill-4_1_" d="M8.53066 1.03568L7.0221 3.59194H7.02626L2.40054 11.4317L2.39637 11.4276L0.891968 13.9798L8.53066 26.924L10.0392 24.3758L3.90494 13.9839L10.0392 3.59194H14.4274L15.936 1.03568H8.53066Z" fill="#1762EE"/>
<path id="Fill-5_1_" d="M19.3037 3.59601L25.4338 13.9839L19.3037 24.3718H14.9155L13.4111 26.924H20.8122L22.3208 24.3718L26.9424 16.5361L28.4509 13.988L26.9465 11.4195L22.3166 3.59194L20.8164 1.03568L19.3037 3.59601Z" fill="#1762EE"/>
</g>
</g>
</g>
<g id="xendit_logotype">
<path id="Fill 1" fill-rule="evenodd" clip-rule="evenodd" d="M41.4043 9.34186L38.6097 13.323L35.8048 9.34186H33.5729L37.4693 14.6862L33.3728 20.284H35.5954L38.6091 16.0674L41.5939 20.284H43.8164L39.7202 14.6862L43.6167 9.34186H41.4043Z" fill="#1762EE"/>
<path id="Fill 2" fill-rule="evenodd" clip-rule="evenodd" d="M49.867 10.7768C50.6826 10.7768 51.3165 11.0336 51.7509 11.5399C52.1706 12.029 52.3936 12.7395 52.4137 13.6529H47.0058C47.1115 12.773 47.4036 12.0724 47.8746 11.5684C48.3657 11.0433 49.0359 10.7768 49.867 10.7768ZM49.8883 9.14719C48.3901 9.14719 47.1787 9.67475 46.288 10.7147C45.4033 11.7479 44.9547 13.156 44.9547 14.9003C44.9547 16.6353 45.4388 18.0131 46.3935 18.9949C47.3499 19.9795 48.6701 20.4785 50.3168 20.4785C51.0604 20.4785 51.7051 20.4235 52.2339 20.3149C52.7621 20.2064 53.3291 20.0251 53.9197 19.7763L54.0053 19.7403V17.9993L53.8077 18.0818C52.6816 18.5523 51.5274 18.7907 50.3766 18.7907C49.3071 18.7907 48.4689 18.4782 47.8854 17.862C47.3212 17.2661 47.0089 16.3856 46.9568 15.2433H54.4734V14.083C54.4734 12.6148 54.0591 11.4136 53.2424 10.5126C52.4209 9.60639 51.2925 9.14719 49.8883 9.14719Z" fill="#1762EE"/>
<path id="Fill 5" fill-rule="evenodd" clip-rule="evenodd" d="M62.311 9.14738C61.5425 9.14738 60.8346 9.29768 60.2069 9.59412C59.6515 9.8568 59.1993 10.2186 58.8589 10.6725L58.6138 9.34196H57.0087V20.2839H58.9459V14.5504C58.9459 13.2021 59.2027 12.2275 59.7085 11.6532C60.2092 11.0847 61.018 10.7962 62.1118 10.7962C62.9302 10.7962 63.5352 10.9975 63.9107 11.3938C64.2887 11.7941 64.4806 12.4171 64.4806 13.2464V20.2839H66.4177V13.188C66.4177 11.793 66.0678 10.7589 65.3777 10.115C64.6894 9.47289 63.6576 9.14738 62.311 9.14738Z" fill="#1762EE"/>
<path id="Fill 7" fill-rule="evenodd" clip-rule="evenodd" d="M73.7992 18.8491C72.849 18.8491 72.1502 18.5275 71.6625 17.8654C71.1714 17.1986 70.9223 16.1883 70.9223 14.8616C70.9223 13.5532 71.1737 12.5302 71.6696 11.8208C72.1607 11.118 72.8507 10.7767 73.7793 10.7767C74.857 10.7767 75.649 11.0845 76.1331 11.6918C76.6256 12.3093 76.8752 13.3692 76.8752 14.842V15.1827C76.8752 16.4798 76.6298 17.4272 76.1458 17.9994C75.6683 18.5632 74.8788 18.8491 73.7992 18.8491ZM76.8754 9.35157L76.9157 10.1056L76.9596 10.5899C76.152 9.63224 75.0196 9.14729 73.5899 9.14729C72.13 9.14729 70.9732 9.65576 70.1517 10.6589C69.3379 11.6525 68.9253 13.06 68.9253 14.842C68.9253 16.6246 69.3364 18.0227 70.1475 18.997C70.9656 19.9801 72.1237 20.4786 73.5899 20.4786C75.0686 20.4786 76.2154 19.9713 77.0024 18.9701L77.2039 20.2841H78.8123V4.86559H76.8751L76.8754 9.35157Z" fill="#1762EE"/>
<path id="Fill 10" fill-rule="evenodd" clip-rule="evenodd" d="M83.0106 5.38139C82.6955 5.38139 82.428 5.48076 82.2157 5.67701C82.0012 5.87547 81.8927 6.18271 81.8927 6.59015C81.8927 6.99011 82.0007 7.29708 82.2138 7.50135C82.4263 7.70535 82.6944 7.80887 83.0106 7.80887C83.3124 7.80887 83.5765 7.7059 83.7956 7.50329C84.0166 7.29846 84.1285 6.99122 84.1285 6.59015C84.1285 6.18852 84.0163 5.88294 83.7947 5.68116C83.5757 5.48215 83.3118 5.38139 83.0106 5.38139Z" fill="#1762EE"/>
<path id="Fill 12" fill-rule="evenodd" clip-rule="evenodd" d="M82.0344 20.2839H83.9716V9.34203H82.0344V20.2839Z" fill="#1762EE"/>
<path id="Fill 14" fill-rule="evenodd" clip-rule="evenodd" d="M92.319 18.6795C92.166 18.7232 91.954 18.7658 91.6891 18.8071C91.4252 18.8478 91.1478 18.8688 90.8644 18.8688C90.3575 18.8688 89.9718 18.7152 89.6853 18.3994C89.3982 18.0835 89.2526 17.6166 89.2526 17.0123V10.8742H92.4208V9.34214H89.2526V6.87038H88.0491L87.3404 9.18492L85.7515 9.86694V10.8742H87.3154V17.0804C87.3154 19.3352 88.4291 20.4786 90.6253 20.4786C90.9086 20.4786 91.2331 20.4501 91.5893 20.3939C91.9549 20.3364 92.2266 20.2641 92.4202 20.173L92.5004 20.1354V18.6277L92.319 18.6795Z" fill="#1762EE"/>
</g>
</g>
</svg>
