<svg width="117" height="46" viewBox="0 0 117 46" fill="none" xmlns="http://www.w3.org/2000/svg">
<g clip-path="url(#clip0_6107_46387)">
<path d="M48.4266 26.5727C48.1887 26.338 48.0018 26.0572 47.8774 25.7476C47.753 25.438 47.6939 25.1063 47.7037 24.773C47.715 24.1593 47.8593 23.5552 48.1266 23.0021L54.1055 9.70603C54.2582 9.31251 54.5203 8.97042 54.861 8.7198C55.209 8.51238 55.6069 8.40283 56.0124 8.40283C56.4179 8.40283 56.8158 8.51238 57.1637 8.7198C57.5021 8.96897 57.7627 9.30839 57.9156 9.69883L63.8981 23.0057C64.1628 23.5495 64.307 24.1437 64.3211 24.7478C64.3322 25.085 64.2737 25.4209 64.1494 25.7348C64.0251 26.0487 63.8374 26.3338 63.5981 26.5727C63.0498 27.0791 62.3358 27.3706 61.5883 27.3934L59.3687 22.5558H52.6307L50.4076 27.3934C49.6693 27.3673 48.9656 27.0758 48.4266 26.5727ZM58.1867 19.2228L55.4647 12.456L55.1032 12.6143L55.8262 14.3852L53.8164 19.2228H58.1867Z" fill="black"/>
<path d="M69.3204 11.8116H62.8679C62.8679 9.54642 63.8945 8.41382 65.9478 8.41382H79.6841C79.6841 10.6766 78.6575 11.8092 76.6043 11.8116H73.2533V24.557C73.2771 24.965 73.198 25.3724 73.0231 25.7421C72.8482 26.1117 72.5831 26.4319 72.252 26.6734C71.5797 27.1558 70.6037 27.3933 69.3168 27.3933L69.3204 11.8116Z" fill="black"/>
<path d="M84.9546 26.533C83.807 26.0167 82.8114 25.2162 82.0627 24.2078C81.3662 23.2996 80.9856 22.1903 80.9783 21.0476V14.7559C80.9856 13.6142 81.3663 12.5061 82.0627 11.5992C82.8122 10.5908 83.8075 9.78928 84.9546 9.27042C86.2093 8.70583 87.5703 8.41382 88.9472 8.41382C90.324 8.41382 91.6851 8.70583 92.9398 9.27042C94.0869 9.78928 95.0822 10.5908 95.8316 11.5992C96.5281 12.5061 96.9088 13.6142 96.9161 14.7559V21.0476C96.9088 22.1903 96.5281 23.2996 95.8316 24.2078C95.083 25.2162 94.0874 26.0167 92.9398 26.533C91.6857 27.0999 90.3244 27.3931 88.9472 27.3931C87.5699 27.3931 86.2086 27.0999 84.9546 26.533ZM91.8842 23.164C92.2396 22.9187 92.529 22.5901 92.7269 22.2072C92.9249 21.8244 93.0253 21.3989 93.0193 20.9684V14.8387C93.025 14.4086 92.9244 13.9838 92.7265 13.6016C92.5286 13.2193 92.2393 12.8914 91.8842 12.6466C91.0051 12.094 89.9868 11.8007 88.9472 11.8007C87.9076 11.8007 86.8892 12.094 86.0101 12.6466C85.653 12.8902 85.3616 13.2176 85.1618 13.5999C84.9619 13.9822 84.8597 14.4077 84.8642 14.8387V20.9576C84.8582 21.3882 84.9586 21.8136 85.1566 22.1964C85.3545 22.5793 85.6439 22.9079 85.9993 23.1532C86.8784 23.7058 87.8967 23.9991 88.9363 23.9991C89.9759 23.9991 90.9943 23.7058 91.8734 23.1532L91.8842 23.164Z" fill="black"/>
<path d="M98.6185 11.2393C98.6103 10.8329 98.7034 10.4308 98.8895 10.069C99.0756 9.70715 99.3489 9.39693 99.6849 9.16608C100.519 8.60871 101.512 8.33474 102.515 8.38502L107.804 21.8683L107.146 23.668L107.435 23.8011L113.121 8.41741C114.124 8.36501 115.117 8.63644 115.952 9.19128C116.287 9.4235 116.559 9.7347 116.744 10.0971C116.928 10.4595 117.02 10.8618 117.011 11.2681V27.3933C114.488 27.3933 113.226 26.4683 113.226 24.6182V17.0595L114.18 14.4176L113.862 14.3096L109.355 26.3567C109.231 26.6586 109.02 26.9169 108.747 27.0982C108.477 27.2885 108.153 27.3904 107.822 27.3897C107.484 27.3924 107.154 27.2926 106.875 27.1035C106.596 26.9144 106.382 26.6451 106.26 26.3315L101.763 14.2556L101.449 14.3852L102.4 17.0307V24.6182C102.4 26.4683 101.139 27.3933 98.6185 27.3933V11.2393Z" fill="black"/>
<path d="M61.2159 34.9952C61.2159 35.3012 61.0351 35.4559 60.6773 35.4559V35.096C60.7252 35.0476 60.7665 34.9932 60.8002 34.934L60.7785 34.9124C60.6662 35.0709 60.5222 35.2045 60.3555 35.3048C60.1863 35.405 59.9922 35.4562 59.7952 35.4523C59.6099 35.4551 59.4269 35.4105 59.2639 35.3228C59.1114 35.2394 58.9861 35.1146 58.9024 34.9628C58.8149 34.8015 58.7701 34.6206 58.7722 34.4373V32.9112C58.7672 32.8548 58.7773 32.7982 58.8015 32.747C58.8256 32.6958 58.8629 32.6518 58.9096 32.6196C59.0403 32.5499 59.1883 32.5187 59.3362 32.5296V34.4013C59.3329 34.4758 59.3447 34.5501 59.3707 34.62C59.3968 34.6898 59.4367 34.7538 59.488 34.808C59.5482 34.8616 59.6185 34.9025 59.6949 34.9285C59.7713 34.9544 59.8521 34.9649 59.9326 34.9592C60.1217 34.9661 60.306 34.8989 60.4459 34.7721C60.5129 34.7162 60.5665 34.6462 60.6027 34.5671C60.639 34.488 60.6571 34.4019 60.6556 34.3149V32.9112C60.6509 32.8552 60.6608 32.7991 60.6842 32.748C60.7076 32.6969 60.7438 32.6527 60.7893 32.6196C60.9187 32.5498 61.0655 32.5186 61.2123 32.5296L61.2159 34.9952Z" fill="#ED1C24"/>
<path d="M62.3654 35.2111C62.2159 35.036 62.1384 34.811 62.1486 34.5813V31.7845C62.1436 31.7278 62.154 31.6708 62.1788 31.6195C62.2036 31.5682 62.2419 31.5245 62.2895 31.493C62.4185 31.4217 62.5654 31.3892 62.7125 31.3994V34.5597C62.7034 34.6693 62.7356 34.7783 62.8028 34.8656C62.8422 34.8998 62.8881 34.9258 62.9378 34.9419C62.9875 34.958 63.04 34.9639 63.092 34.9592C63.2308 34.9596 63.367 34.9222 63.486 34.8512C63.5427 34.9131 63.5737 34.9942 63.5728 35.078C63.5704 35.1302 63.5553 35.181 63.5288 35.2261C63.5024 35.2712 63.4654 35.3093 63.421 35.3371C63.301 35.4184 63.1573 35.4576 63.0125 35.4487C62.8938 35.4582 62.7744 35.4419 62.6627 35.4009C62.551 35.3599 62.4495 35.2951 62.3654 35.2111Z" fill="#ED1C24"/>
<path d="M64.838 35.2111C64.6975 35.0317 64.6258 34.8085 64.6356 34.5812V33.0191H64.0933C64.086 32.9018 64.1177 32.7854 64.1837 32.6879C64.2136 32.6524 64.2513 32.6241 64.294 32.6054C64.3366 32.5867 64.383 32.578 64.4295 32.58H64.6464V32.0652C64.6421 32.009 64.6526 31.9526 64.6766 31.9015C64.7007 31.8504 64.7376 31.8064 64.7838 31.7737C64.9095 31.7046 65.0526 31.6733 65.1959 31.6837V32.58H65.9441C65.9542 32.6975 65.9221 32.8148 65.8538 32.9111C65.8162 32.9497 65.7703 32.9795 65.7197 32.9982C65.669 33.0169 65.6148 33.024 65.561 33.0191H65.1995V34.5596C65.1892 34.6677 65.2174 34.776 65.279 34.8656C65.3167 34.9002 65.3613 34.9264 65.4099 34.9425C65.4585 34.9587 65.51 34.9643 65.561 34.9591C65.6961 34.9581 65.8285 34.9208 65.9441 34.8512C65.9778 34.8845 66.0033 34.9251 66.0187 34.9699C66.0342 35.0146 66.0391 35.0622 66.0332 35.1091C66.0272 35.1561 66.0106 35.201 65.9845 35.2405C65.9584 35.28 65.9236 35.3131 65.8827 35.3371C65.7576 35.4189 65.6091 35.4581 65.4597 35.4487C65.345 35.4567 65.2298 35.4395 65.1224 35.3985C65.015 35.3575 64.9179 35.2935 64.838 35.2111Z" fill="#ED1C24"/>
<path d="M66.8876 32.0509C66.8486 32.0171 66.8172 31.9754 66.7958 31.9285C66.7743 31.8816 66.7632 31.8307 66.7632 31.7792C66.7632 31.7276 66.7743 31.6767 66.7958 31.6298C66.8172 31.5829 66.8486 31.5412 66.8876 31.5074C66.9663 31.4354 67.07 31.3967 67.1768 31.3994C67.2286 31.3981 67.2802 31.4069 67.3286 31.4254C67.377 31.444 67.4212 31.4718 67.4588 31.5074C67.4954 31.5427 67.5245 31.5849 67.5444 31.6316C67.5643 31.6783 67.5746 31.7284 67.5746 31.7792C67.5746 31.8299 67.5643 31.8801 67.5444 31.9268C67.5245 31.9734 67.4954 32.0157 67.4588 32.0509C67.4211 32.086 67.3767 32.1133 67.3283 32.1312C67.2799 32.1491 67.2284 32.1573 67.1768 32.1553C67.0705 32.1594 66.9667 32.1219 66.8876 32.0509ZM66.8876 32.9112C66.8826 32.8548 66.8927 32.7982 66.9168 32.747C66.941 32.6957 66.9783 32.6518 67.025 32.6196C67.1532 32.5501 67.2988 32.5189 67.4443 32.5296V35.0492C67.4479 35.1049 67.4372 35.1605 67.4132 35.2109C67.3892 35.2613 67.3526 35.3048 67.307 35.3371C67.1799 35.4099 67.0337 35.4426 66.8876 35.4307V32.9112Z" fill="#ED1C24"/>
<path d="M68.3046 32.9867C68.3046 32.6808 68.4817 32.5296 68.8396 32.5296V32.8896C68.7948 32.9393 68.7537 32.9922 68.7167 33.0479L68.7456 33.0731C68.8429 32.9208 68.9651 32.7857 69.1071 32.6736C69.246 32.5812 69.41 32.5335 69.577 32.5368C69.7304 32.53 69.8817 32.574 70.0073 32.6619C70.1329 32.7498 70.2257 32.8767 70.2711 33.0227C70.3565 32.8717 70.481 32.7463 70.6317 32.6595C70.7824 32.5728 70.9538 32.5279 71.1278 32.5296C71.2448 32.5238 71.3616 32.5452 71.4688 32.592C71.5761 32.6389 71.671 32.7099 71.7459 32.7996C71.9038 33.0054 71.982 33.2609 71.9665 33.5194V35.0816C71.9712 35.1374 71.9609 35.1934 71.9368 35.244C71.9127 35.2946 71.8755 35.3379 71.8291 35.3695C71.7021 35.4423 71.5558 35.475 71.4098 35.4631V33.5554C71.4098 33.1955 71.2652 33.0191 70.976 33.0191C70.9011 33.0178 70.8266 33.0314 70.7571 33.0593C70.6875 33.0871 70.6243 33.1285 70.5711 33.1811C70.5134 33.2397 70.4688 33.3097 70.4402 33.3866C70.4115 33.4635 70.3995 33.5456 70.4048 33.6274V35.0672C70.4095 35.1231 70.3997 35.1793 70.3762 35.2304C70.3528 35.2814 70.3166 35.3256 70.2711 35.3587C70.1454 35.4278 70.0022 35.4591 69.859 35.4487V33.5554C69.8666 33.4164 69.8286 33.2787 69.7506 33.1631C69.7114 33.1136 69.6605 33.0746 69.6025 33.0495C69.5444 33.0243 69.4811 33.0139 69.418 33.0191C69.341 33.0164 69.2644 33.0308 69.1937 33.0613C69.123 33.0918 69.0601 33.1377 69.0095 33.1955C68.8993 33.3191 68.8411 33.4802 68.8468 33.6454V35.0852C68.8516 35.141 68.8413 35.197 68.8172 35.2476C68.7931 35.2982 68.7559 35.3415 68.7095 35.3731C68.5825 35.4459 68.4362 35.4786 68.2902 35.4667L68.3046 32.9867Z" fill="#ED1C24"/>
<path d="M73.0075 35.1932C72.9123 35.1045 72.8367 34.9971 72.7856 34.8777C72.7345 34.7584 72.7089 34.6297 72.7107 34.4999C72.7124 34.3701 72.7412 34.2422 72.7955 34.1241C72.8497 34.0061 72.9281 33.9007 73.0256 33.8146C73.2585 33.6345 73.548 33.5427 73.8426 33.5554C74.0057 33.5502 74.1681 33.5795 74.3189 33.6416C74.4697 33.7037 74.6056 33.797 74.7173 33.9154L74.7427 33.8938C74.6935 33.8418 74.6417 33.7926 74.5872 33.7462V33.5554C74.5916 33.4768 74.5783 33.3982 74.5483 33.3254C74.5182 33.2525 74.4723 33.1872 74.4137 33.1343C74.2735 33.0269 74.0986 32.9744 73.9221 32.9867C73.7571 32.9748 73.592 33.0098 73.4462 33.0875C73.3003 33.1652 73.1795 33.2826 73.0979 33.4259C73.0323 33.3974 72.9742 33.3543 72.928 33.2999C72.8879 33.2524 72.865 33.1928 72.8629 33.1307C72.8658 33.0736 72.8808 33.0178 72.907 32.9669C72.9331 32.916 72.9699 32.8712 73.0148 32.8356C73.1333 32.7349 73.271 32.659 73.4196 32.6124C73.595 32.557 73.7779 32.5291 73.9618 32.5296C74.2744 32.5115 74.5828 32.6075 74.8294 32.7996C74.9327 32.8886 75.0148 32.9994 75.0698 33.1239C75.1248 33.2484 75.1514 33.3835 75.1475 33.5195V35.0204C75.1533 35.0792 75.1445 35.1386 75.1218 35.1932C75.0991 35.2478 75.0632 35.296 75.0174 35.3335C74.8973 35.4073 74.7568 35.4413 74.6161 35.4307V35.1788C74.6957 35.0924 74.739 35.042 74.7463 35.0312L74.7246 35.0096C74.6098 35.1475 74.4647 35.2572 74.3004 35.3302C74.1362 35.4033 73.9572 35.4377 73.7775 35.4307C73.5005 35.4467 73.227 35.3623 73.0075 35.1932ZM74.4137 34.8872C74.4705 34.8457 74.5167 34.7915 74.5487 34.729C74.5808 34.6665 74.5976 34.5974 74.5981 34.5273C74.6008 34.453 74.5855 34.3792 74.5534 34.3122C74.5213 34.2451 74.4733 34.1868 74.4137 34.1421C74.2651 34.0411 74.0872 33.9918 73.9076 34.0018C73.7371 33.9924 73.5685 34.042 73.4305 34.1421C73.3764 34.1901 73.3332 34.2489 73.3036 34.3146C73.274 34.3804 73.2587 34.4516 73.2587 34.5237C73.2587 34.5957 73.274 34.667 73.3036 34.7327C73.3332 34.7985 73.3764 34.8573 73.4305 34.9052C73.5659 35.0018 73.7306 35.0488 73.8968 35.0384C74.0808 35.0439 74.2619 34.991 74.4137 34.8872Z" fill="#ED1C24"/>
<path d="M76.6187 35.2111C76.4783 35.0317 76.4065 34.8085 76.4163 34.5812V33.0191H75.8741C75.8667 32.9018 75.8985 32.7854 75.9645 32.6879C75.9938 32.6527 76.0309 32.6246 76.0729 32.6058C76.1149 32.5871 76.1607 32.5783 76.2067 32.58H76.4272V32.0652C76.4229 32.009 76.4333 31.9526 76.4574 31.9015C76.4814 31.8504 76.5183 31.8064 76.5645 31.7737C76.6902 31.7046 76.8334 31.6733 76.9766 31.6837V32.58H77.7249C77.7359 32.6981 77.7024 32.8161 77.6309 32.9111C77.5937 32.9493 77.5485 32.9787 77.4985 32.9974C77.4485 33.0161 77.3949 33.0235 77.3417 33.0191H76.9802V34.5596C76.97 34.6677 76.9981 34.776 77.0598 34.8656C77.0974 34.9002 77.142 34.9264 77.1906 34.9425C77.2392 34.9587 77.2907 34.9643 77.3417 34.9591C77.4768 34.9576 77.609 34.9203 77.7249 34.8512C77.7585 34.8845 77.784 34.9251 77.7995 34.9699C77.8149 35.0146 77.8199 35.0622 77.8139 35.1091C77.808 35.1561 77.7913 35.201 77.7653 35.2405C77.7392 35.28 77.7043 35.3131 77.6634 35.3371C77.5374 35.4169 77.3897 35.4559 77.2405 35.4487C77.1257 35.4567 77.0106 35.4395 76.9032 35.3985C76.7958 35.3575 76.6987 35.2935 76.6187 35.2111Z" fill="#ED1C24"/>
<path d="M79.1418 35.3155C78.9679 35.2357 78.8182 35.1116 78.7081 34.9555C78.6032 34.7989 78.5478 34.6147 78.549 34.4264V33.6202C78.5467 33.424 78.6047 33.2318 78.7153 33.0695C78.8286 32.9059 78.9815 32.7734 79.1599 32.6843C79.3471 32.5944 79.5522 32.5477 79.76 32.5477C79.9678 32.5477 80.1729 32.5944 80.36 32.6843C80.5327 32.7646 80.6811 32.8888 80.7902 33.0443C80.895 33.2074 80.9491 33.3977 80.9457 33.5914V33.9513C80.9459 33.9828 80.9392 34.0139 80.9261 34.0425C80.913 34.0711 80.8937 34.0965 80.8697 34.1169C80.8211 34.1633 80.7563 34.1891 80.689 34.1889H79.0985V34.4012C79.0948 34.4818 79.1076 34.5624 79.1362 34.6378C79.1648 34.7133 79.2085 34.7823 79.2648 34.8404C79.403 34.9582 79.582 35.0176 79.7636 35.0059C79.9394 35.0174 80.1136 34.9664 80.2552 34.862C80.31 34.8149 80.3534 34.7562 80.3821 34.6901C80.4109 34.6241 80.4244 34.5524 80.4215 34.4804C80.5365 34.4653 80.6533 34.4881 80.7541 34.5452C80.7959 34.5705 80.8301 34.6066 80.8531 34.6497C80.876 34.6928 80.8867 34.7413 80.8842 34.79C80.8824 34.8528 80.8676 34.9146 80.8409 34.9716C80.8141 35.0285 80.776 35.0794 80.7288 35.1211C80.6122 35.2349 80.4713 35.321 80.3167 35.3731C80.1392 35.4361 79.952 35.4678 79.7636 35.4667C79.5474 35.4652 79.3344 35.4134 79.1418 35.3155ZM80.4323 33.7462V33.5842C80.435 33.5032 80.4198 33.4226 80.388 33.348C80.3562 33.2734 80.3084 33.2066 80.248 33.1523C80.1134 33.0379 79.9403 32.9787 79.7636 32.9867C79.5867 32.9776 79.4132 33.0369 79.2792 33.1523C79.2193 33.2068 79.1721 33.2737 79.1408 33.3483C79.1096 33.4229 79.0952 33.5034 79.0985 33.5842V33.7462H80.4323Z" fill="#ED1C24"/>
<path d="M84.2858 35.3552C84.127 35.308 83.9836 35.2198 83.8701 35.0996C83.7764 35.0025 83.7223 34.8742 83.7182 34.7397C83.7182 34.5453 83.8448 34.4445 84.0797 34.4337C84.0898 34.5201 84.1178 34.6034 84.162 34.6784C84.2062 34.7534 84.2656 34.8184 84.3364 34.8693C84.4867 34.9697 84.6652 35.0201 84.8461 35.0132C85.0147 35.0218 85.1831 34.991 85.3377 34.9232C85.3905 34.9008 85.4353 34.8631 85.4663 34.8149C85.4972 34.7668 85.5129 34.7104 85.5112 34.6533C85.5127 34.597 85.4991 34.5412 85.4718 34.4919C85.4445 34.4425 85.4044 34.4013 85.3558 34.3725C85.1752 34.2768 84.9796 34.2123 84.7774 34.1818C84.5677 34.1365 84.3621 34.0739 84.1629 33.9946C84.0283 33.9419 83.9108 33.8535 83.8231 33.7391C83.7449 33.614 83.7059 33.4687 83.711 33.3215C83.7107 33.1757 83.759 33.0339 83.8484 32.9184C83.9439 32.7975 84.0681 32.7023 84.2099 32.6412C84.3903 32.5701 84.5833 32.5358 84.7774 32.5405C84.9671 32.5379 85.1561 32.5646 85.3377 32.6196C85.4914 32.661 85.6328 32.7388 85.7498 32.8464C85.8005 32.8915 85.8407 32.9471 85.8675 33.0093C85.8944 33.0714 85.9072 33.1387 85.9052 33.2063C85.9052 33.3935 85.7642 33.4907 85.4859 33.5015C85.4785 33.4306 85.4563 33.3619 85.4209 33.3C85.3854 33.238 85.3374 33.1841 85.2799 33.1416C85.1371 33.0429 84.9653 32.9948 84.7919 33.0048C84.6498 32.9994 84.5088 33.0317 84.3834 33.0984C84.3364 33.1201 84.2965 33.1546 84.2684 33.1979C84.2402 33.2412 84.225 33.2915 84.2243 33.3431C84.2235 33.3927 84.2366 33.4416 84.2621 33.4842C84.2877 33.5268 84.3246 33.5615 84.3689 33.5843C84.5247 33.6593 84.6901 33.7126 84.8605 33.7427C85.176 33.7914 85.4777 33.9054 85.7462 34.0774C85.8376 34.1474 85.9109 34.2381 85.96 34.3421C86.009 34.446 86.0324 34.5601 86.0281 34.6749C86.032 34.7935 86.0047 34.911 85.9489 35.0158C85.8931 35.1206 85.8108 35.2091 85.71 35.2724C85.4406 35.4277 85.1316 35.5015 84.8208 35.4847C84.6368 35.469 84.4564 35.4253 84.2858 35.3552Z" fill="#ED1C24"/>
<path d="M87.5029 35.3192C87.325 35.2411 87.1714 35.1168 87.0583 34.9593C86.9525 34.8098 86.8968 34.631 86.8992 34.4482V33.5555C86.8973 33.3688 86.9514 33.1858 87.0547 33.03C87.1668 32.873 87.3191 32.7487 87.4957 32.6701C87.6981 32.5799 87.9174 32.5333 88.1391 32.5333C88.3609 32.5333 88.5801 32.5799 88.7826 32.6701C88.9592 32.7487 89.1115 32.873 89.2236 33.03C89.3307 33.1844 89.3875 33.3679 89.3862 33.5555V34.441C89.3873 34.6241 89.3304 34.803 89.2236 34.9521C89.1117 35.1107 88.9578 35.2353 88.779 35.312C88.5775 35.4005 88.3593 35.4446 88.1391 35.4416C87.9206 35.4477 87.7034 35.4059 87.5029 35.3192ZM88.6452 34.8153C88.706 34.7682 88.7547 34.7074 88.7874 34.638C88.82 34.5686 88.8357 34.4924 88.8332 34.4158V33.5879C88.8352 33.5087 88.8194 33.4301 88.7869 33.3579C88.7543 33.2856 88.7059 33.2215 88.6452 33.1704C88.4959 33.0693 88.3196 33.0153 88.1391 33.0153C87.9586 33.0153 87.7823 33.0693 87.6331 33.1704C87.5717 33.221 87.5229 33.285 87.4903 33.3574C87.4577 33.4298 87.4422 33.5086 87.4451 33.5879V34.4158C87.4427 34.492 87.4581 34.5678 87.4901 34.6371C87.5221 34.7064 87.5698 34.7674 87.6294 34.8153C87.7772 34.9214 87.9572 34.9735 88.1391 34.9629C88.32 34.9742 88.4991 34.922 88.6452 34.8153Z" fill="#ED1C24"/>
<path d="M90.4309 35.2111C90.2839 35.0347 90.2079 34.8102 90.2177 34.5812V31.7845C90.2127 31.7282 90.2228 31.6715 90.2469 31.6203C90.271 31.5691 90.3083 31.5251 90.355 31.493C90.4855 31.4222 90.6334 31.3897 90.7816 31.3994V34.5596C90.7715 34.6688 90.8024 34.7778 90.8683 34.8656C90.9084 34.8999 90.9549 34.9259 91.0052 34.942C91.0555 34.9581 91.1085 34.9639 91.1611 34.9591C91.2999 34.9592 91.436 34.9218 91.5552 34.8512C91.6109 34.9135 91.6406 34.9946 91.6383 35.0779C91.6369 35.1299 91.6226 35.1808 91.5968 35.226C91.5709 35.2712 91.5343 35.3093 91.4901 35.3371C91.3699 35.4178 91.2264 35.4571 91.0816 35.4487C90.9624 35.4578 90.8426 35.4413 90.7304 35.4003C90.6181 35.3593 90.516 35.2948 90.4309 35.2111Z" fill="#ED1C24"/>
<path d="M94.917 34.9952C94.917 35.3011 94.7363 35.4559 94.3748 35.4559V35.096C94.4238 35.0485 94.4653 34.9939 94.4977 34.934L94.476 34.9124C94.3656 35.0725 94.2212 35.2064 94.0531 35.3047C93.8882 35.3976 93.7026 35.4479 93.5131 35.451C93.3237 35.4542 93.1365 35.4101 92.9686 35.3227C92.8166 35.2389 92.6913 35.1142 92.6071 34.9628C92.5197 34.8015 92.4749 34.6206 92.477 34.4373V32.9111C92.4727 32.8549 92.4832 32.7985 92.5072 32.7474C92.5313 32.6963 92.5682 32.6523 92.6144 32.6196C92.7452 32.5502 92.8931 32.5191 93.0409 32.5296V34.4013C93.0377 34.4757 93.0494 34.5501 93.0755 34.6199C93.1016 34.6898 93.1414 34.7537 93.1927 34.808C93.2529 34.8615 93.3233 34.9025 93.3997 34.9284C93.476 34.9544 93.5569 34.9649 93.6374 34.9592C93.8265 34.9661 94.0108 34.8989 94.1507 34.772C94.2176 34.7162 94.2712 34.6462 94.3075 34.5671C94.3438 34.488 94.3618 34.4018 94.3603 34.3149V32.9111C94.3564 32.8553 94.3665 32.7993 94.3899 32.7484C94.4133 32.6975 94.4491 32.6532 94.4941 32.6196C94.6248 32.5499 94.7728 32.5187 94.9206 32.5296L94.917 34.9952Z" fill="#ED1C24"/>
<path d="M96.493 35.2111C96.3511 35.0325 96.2791 34.8087 96.2906 34.5812V33.0191H95.7483C95.7392 32.9016 95.7712 32.7847 95.8387 32.6879C95.8681 32.6527 95.9052 32.6246 95.9472 32.6058C95.9892 32.5871 96.0349 32.5783 96.0809 32.58H96.3014V32.0652C96.2968 32.0093 96.3066 31.9531 96.33 31.9021C96.3535 31.851 96.3897 31.8068 96.4352 31.7737C96.5609 31.7046 96.704 31.6733 96.8473 31.6837V32.58H97.5992C97.6084 32.698 97.5751 32.8154 97.5052 32.9111C97.468 32.9493 97.4227 32.9787 97.3727 32.9974C97.3227 33.0161 97.2692 33.0235 97.216 33.0191H96.8545V34.5596C96.846 34.6676 96.874 34.7753 96.934 34.8656C96.9717 34.9002 97.0163 34.9264 97.0649 34.9425C97.1135 34.9587 97.165 34.9643 97.216 34.9591C97.3512 34.9586 97.4837 34.9213 97.5992 34.8512C97.629 34.8808 97.6525 34.9162 97.668 34.9552C97.6836 34.9942 97.6909 35.036 97.6895 35.0779C97.6871 35.1301 97.672 35.1809 97.6456 35.2261C97.6191 35.2712 97.5821 35.3093 97.5377 35.3371C97.4126 35.4189 97.2642 35.4581 97.1148 35.4487C96.9999 35.4577 96.8845 35.441 96.7769 35.3999C96.6693 35.3588 96.5723 35.2943 96.493 35.2111Z" fill="#ED1C24"/>
<path d="M98.6439 32.0509C98.6072 32.0157 98.5781 31.9735 98.5582 31.9268C98.5383 31.8801 98.5281 31.8299 98.5281 31.7792C98.5281 31.7285 98.5383 31.6783 98.5582 31.6316C98.5781 31.5849 98.6072 31.5427 98.6439 31.5074C98.7227 31.4358 98.8263 31.3971 98.933 31.3994C99.0388 31.3965 99.1414 31.4353 99.2186 31.5074C99.2552 31.5427 99.2844 31.5849 99.3042 31.6316C99.3241 31.6783 99.3344 31.7285 99.3344 31.7792C99.3344 31.8299 99.3241 31.8801 99.3042 31.9268C99.2844 31.9735 99.2552 32.0157 99.2186 32.0509C99.1411 32.122 99.0384 32.1596 98.933 32.1553C98.8267 32.159 98.7231 32.1216 98.6439 32.0509ZM98.6439 32.9112C98.6396 32.8549 98.65 32.7985 98.6741 32.7474C98.6981 32.6964 98.735 32.6523 98.7812 32.6196C98.9109 32.5508 99.0575 32.5196 99.2042 32.5296V35.0492C99.2081 35.1053 99.1972 35.1614 99.1724 35.212C99.1477 35.2625 99.11 35.3057 99.0632 35.3372C98.9362 35.4099 98.7899 35.4426 98.6439 35.4307V32.9112Z" fill="#ED1C24"/>
<path d="M100.769 35.3191C100.592 35.2414 100.44 35.1169 100.328 34.9592C100.222 34.81 100.165 34.6312 100.166 34.448V33.5554C100.165 33.3684 100.22 33.1854 100.325 33.0299C100.437 32.8729 100.589 32.7486 100.766 32.6699C100.968 32.5799 101.186 32.5333 101.407 32.5333C101.629 32.5333 101.847 32.5799 102.049 32.6699C102.226 32.7501 102.379 32.874 102.494 33.0299C102.6 33.1846 102.655 33.3681 102.653 33.5554V34.4408C102.655 34.6236 102.6 34.8025 102.494 34.952C102.381 35.1095 102.227 35.2338 102.049 35.3119C101.848 35.4003 101.629 35.4445 101.409 35.4415C101.19 35.4475 100.971 35.4057 100.769 35.3191ZM101.915 34.8152C101.975 34.7673 102.023 34.7063 102.055 34.637C102.087 34.5677 102.102 34.4919 102.1 34.4156V33.5878C102.103 33.5085 102.087 33.4296 102.055 33.3573C102.022 33.2849 101.973 33.2209 101.912 33.1703C101.763 33.0695 101.587 33.0157 101.407 33.0157C101.228 33.0157 101.052 33.0695 100.903 33.1703C100.842 33.2209 100.793 33.2849 100.76 33.3573C100.728 33.4296 100.712 33.5085 100.715 33.5878V34.4156C100.713 34.4919 100.728 34.5677 100.76 34.637C100.792 34.7063 100.84 34.7673 100.9 34.8152C101.051 34.9116 101.228 34.9629 101.407 34.9629C101.587 34.9629 101.764 34.9116 101.915 34.8152Z" fill="#ED1C24"/>
<path d="M103.488 32.9867C103.488 32.6808 103.669 32.5296 104.03 32.5296V32.8895C103.984 32.9391 103.942 32.992 103.904 33.0479L103.932 33.0731C104.049 32.9069 104.204 32.771 104.384 32.6772C104.563 32.5772 104.765 32.5263 104.97 32.5296C105.103 32.5217 105.236 32.5421 105.361 32.5892C105.485 32.6364 105.599 32.7093 105.693 32.8032C105.784 32.8986 105.855 33.0118 105.9 33.1357C105.946 33.2595 105.965 33.3914 105.957 33.523V35.0852C105.96 35.1408 105.95 35.1965 105.926 35.2469C105.902 35.2973 105.865 35.3407 105.819 35.3731C105.692 35.4459 105.546 35.4785 105.4 35.4667V33.5914C105.406 33.5153 105.395 33.4388 105.367 33.3674C105.34 33.296 105.297 33.2316 105.242 33.1786C105.187 33.1256 105.12 33.0855 105.048 33.061C104.975 33.0366 104.898 33.0284 104.822 33.0371C104.696 33.0386 104.573 33.0681 104.46 33.1235C104.35 33.1771 104.256 33.2576 104.185 33.3575C104.118 33.452 104.083 33.5655 104.084 33.6814V35.0852C104.089 35.1414 104.078 35.1978 104.054 35.2489C104.03 35.3 103.993 35.344 103.947 35.3767C103.816 35.446 103.668 35.4772 103.52 35.4667L103.488 32.9867Z" fill="#ED1C24"/>
<mask id="mask0_6107_46387" style="mask-type:alpha" maskUnits="userSpaceOnUse" x="-1" y="0" width="45" height="45">
<rect x="-0.426514" width="43.5095" height="45" fill="#D9D9D9"/>
</mask>
<g mask="url(#mask0_6107_46387)">
<path d="M23.5994 33.2987C22.8415 36.9181 21.8222 39.2575 21.0842 40.2367C20.3462 39.2575 19.3302 36.9181 18.5723 33.2987C18.4267 32.6102 18.291 31.8716 18.1686 31.0929C18.1454 30.9526 18.1256 30.8156 18.1057 30.6785C17.9799 29.8363 17.8707 28.944 17.7748 28.0049C17.7748 27.9013 17.7549 27.7977 17.745 27.6941C17.6788 26.9488 17.6225 26.1735 17.5828 25.3547C17.5596 24.9303 17.5398 24.4991 17.5299 24.0546C17.5199 23.6102 17.51 23.1423 17.5034 22.671C17.5034 22.4705 17.5034 22.2733 17.5034 22.0695C17.5034 21.8656 17.5034 21.6684 17.5034 21.4679C17.5034 20.9967 17.5034 20.5355 17.5299 20.081C17.5299 19.7134 17.553 19.3558 17.5729 19.0015C17.5763 18.9414 17.5763 18.8811 17.5729 18.821C17.5745 18.8032 17.5745 18.7853 17.5729 18.7676C17.5524 18.384 17.3854 18.0234 17.107 17.7616C16.8287 17.4999 16.4606 17.3573 16.0803 17.3639C15.783 17.3635 15.4921 17.4506 15.243 17.6146L15.114 17.6914C14.8194 17.8719 14.5282 18.0524 14.2436 18.2362C13.959 18.42 13.7472 18.5704 13.5023 18.7174C12.9628 19.0516 12.4432 19.4159 11.9369 19.7735C11.8177 19.8537 11.7019 19.9339 11.5828 20.0208C10.6131 20.6892 9.703 21.3877 8.84917 22.0695C8.24354 22.5541 7.671 23.032 7.13156 23.5132C2.75977 27.3866 0.519272 30.986 1.69744 32.9678C2.28652 33.9704 3.68311 34.435 5.62245 34.435C7.56179 34.435 10.0273 33.9738 12.8304 33.0982C12.8106 32.9745 12.7874 32.8475 12.7676 32.7305C12.6054 31.7914 12.4664 30.8156 12.3539 29.8163C9.41177 30.7755 7.09846 31.1732 5.62245 31.1732C5.34115 31.1732 5.11279 31.1732 4.93077 31.1431C5.44043 30.0268 7.01242 28.0216 9.83538 25.5652C10.3781 25.0974 10.9639 24.6161 11.5993 24.1215C11.7085 24.0312 11.8244 23.9477 11.9303 23.8575C12.6153 23.3361 13.3566 22.798 14.1476 22.2566C14.1476 23.1556 14.1708 24.0413 14.2072 24.9069C14.2072 25.2411 14.2336 25.5753 14.2535 25.9095C14.2734 26.2437 14.2899 26.4943 14.3098 26.7884C14.3528 27.41 14.4024 28.0216 14.4653 28.6232C14.4653 28.7702 14.4951 28.9106 14.5116 29.0543C14.6341 30.2073 14.7863 31.3169 14.9683 32.3763C15.0974 33.1282 15.2364 33.8501 15.3953 34.5453C16.6462 40.1799 18.7246 43.8662 21.0776 43.8662C23.4306 43.8662 25.5123 40.1899 26.7665 34.5453L26.4025 34.4149C25.5123 34.0874 24.5691 33.7031 23.5994 33.2987Z" fill="#ED1C24"/>
<path d="M11.2415 19.2768C8.51996 16.8338 7.0253 14.7972 6.55515 13.6757C7.76236 13.5217 10.2734 13.7995 13.7518 14.9328C14.4141 15.1471 15.1145 15.3947 15.8426 15.6736C15.9743 15.7229 16.1016 15.7735 16.2289 15.824C17.013 16.1314 17.8318 16.4779 18.684 16.8589C18.7728 16.9101 18.8714 16.9441 18.9651 16.9867C19.6365 17.2977 20.3286 17.6322 21.0498 18.0024C21.4249 18.1921 21.804 18.3879 22.1897 18.5989C22.5753 18.8099 22.981 19.0325 23.3879 19.2596C23.5597 19.3587 23.7285 19.4561 23.9031 19.5568C24.0777 19.6575 24.2466 19.7549 24.4184 19.854C24.822 20.0868 25.217 20.3147 25.593 20.5621C25.9079 20.7437 26.2026 20.9404 26.4961 21.1326C26.5459 21.1652 26.5975 21.195 26.6507 21.2217C26.6651 21.2319 26.6804 21.2408 26.6965 21.2481C27.0352 21.4199 27.4274 21.4538 27.7906 21.3426C28.1538 21.2313 28.4597 20.9837 28.644 20.6518C28.7928 20.3952 28.8635 20.1007 28.8474 19.8045L28.846 19.655C28.8385 19.3113 28.8294 18.9705 28.8141 18.6337C28.7988 18.297 28.7757 18.0396 28.7721 17.7554C28.7552 17.1241 28.7027 16.4951 28.6493 15.8809C28.6401 15.7383 28.6292 15.5986 28.6143 15.4527C28.526 14.2846 28.3822 13.1531 28.2247 12.0784C28.1121 11.3156 27.9886 10.5848 27.8458 9.88089C26.7114 4.18945 24.7474 0.475115 22.4617 0.514098C21.3088 0.52781 20.2136 1.50514 19.2452 3.18099C18.2767 4.85684 17.4406 7.21524 16.7908 10.0701C16.9066 10.114 17.0269 10.1567 17.137 10.1974C18.0223 10.5212 18.9275 10.8832 19.8396 11.2797C20.4872 8.26343 21.3018 6.06795 22.0388 4.79247C22.1793 4.54939 22.2933 4.35206 22.41 4.20963C23.1115 5.20151 24.044 7.55059 24.7382 11.2036C24.8679 11.9037 24.9875 12.6477 25.0939 13.4411C25.1166 13.5801 25.1303 13.7214 25.1547 13.8575C25.2592 14.7071 25.3498 15.6135 25.4186 16.5645C24.6486 16.1203 23.8785 15.7028 23.119 15.3066C22.8327 15.1415 22.5333 14.9993 22.2371 14.8513C21.941 14.7034 21.718 14.5939 21.4562 14.4657C20.9023 14.1958 20.3537 13.9365 19.8071 13.6937C19.6812 13.621 19.5461 13.5774 19.4147 13.5207C18.3661 13.0569 17.3397 12.6403 16.3415 12.2742C15.633 12.0142 14.9453 11.7777 14.2706 11.5715C8.81994 9.86874 4.62491 9.84353 3.44991 11.8769C2.27492 13.9102 4.38406 17.5252 8.59228 21.3978L8.8857 21.1476C9.61076 20.5401 10.4109 19.915 11.2415 19.2768Z" fill="#ED1C24"/>
<path d="M35.4525 23.8417L35.1523 24.0786C34.3618 24.706 33.5513 25.3133 32.7408 25.8873C35.5859 28.3401 37.1669 30.3424 37.6839 31.4537C37.5005 31.4537 37.2703 31.4837 36.9868 31.4837C35.4959 31.4837 33.1677 31.0866 30.2059 30.1288C29.5121 29.9063 28.785 29.6516 28.0245 29.3646L27.6142 29.2078C26.7937 28.8941 25.9465 28.5403 25.056 28.1399C25.8631 27.6949 26.6481 27.2389 27.4108 26.7717L28.2813 26.2244C28.5382 26.0675 28.785 25.8907 29.0318 25.7472C29.5721 25.4135 30.0991 25.0464 30.6061 24.6893L30.9664 24.4457C31.9403 23.7783 32.8609 23.0775 33.7214 22.4C34.3285 21.915 34.9055 21.4334 35.4525 20.9551C39.8753 17.0907 42.1234 13.4999 40.946 11.5177C40.3489 10.5165 38.9447 10.0527 36.9868 10.0527C35.0289 10.0527 32.5507 10.5132 29.7222 11.3875C29.7423 11.511 29.7689 11.6378 29.7889 11.7579C29.9524 12.6957 30.0925 13.6734 30.2059 14.6646C33.1677 13.7102 35.4959 13.323 36.9868 13.323C37.2196 13.3216 37.4523 13.3328 37.6839 13.3564C37.1703 14.4677 35.5893 16.4833 32.7408 18.9194C32.1971 19.3899 31.6068 19.8672 30.9664 20.3644L30.6328 20.6247C29.9457 21.1453 29.1952 21.6825 28.4014 22.2232C28.308 22.2899 28.218 22.35 28.1246 22.41C27.4864 22.855 26.8193 23.2888 26.1233 23.7115C25.7564 23.9418 25.3828 24.1654 24.9993 24.3789C24.6157 24.5925 24.1821 24.8628 23.7618 25.0998C23.5817 25.2066 23.4016 25.3033 23.2248 25.4034L22.6811 25.7004C22.2575 25.934 21.8339 26.1576 21.4204 26.3679C21.0068 26.5781 20.6699 26.7583 20.303 26.9419L20.2429 26.9686C20.0221 27.0924 19.8383 27.2728 19.7104 27.4913C19.5824 27.7097 19.515 27.9584 19.515 28.2116C19.515 28.4649 19.5824 28.7135 19.7104 28.932C19.8383 29.1505 20.0221 29.3309 20.2429 29.4547L20.2696 29.4714L20.3463 29.5081C20.3586 29.5167 20.3721 29.5235 20.3864 29.5281L20.4998 29.5882L21.4204 30.042L22.2275 30.4292C22.8146 30.7061 23.3916 30.9698 23.9653 31.2167L24.3622 31.3936C25.474 31.8675 26.5469 32.2924 27.5809 32.6684C28.3214 32.9353 29.0418 33.179 29.7423 33.3925C32.5707 34.2702 35.0789 34.7274 37.0068 34.7274C38.9347 34.7274 40.3689 34.2568 40.966 33.2624C42.13 31.3001 39.8753 27.7061 35.4525 23.8417Z" fill="#ED1C24"/>
</g>
</g>
<defs>
<clipPath id="clip0_6107_46387">
<rect width="117" height="46" fill="white"/>
</clipPath>
</defs>
</svg>
